# xmcd
#
# Track frame offsets: 
#        150
#        20379
#        44956
#        60511
#        74378
#        86273
#        110388
#        123808
#        133484
#        146170
#        161335
#        176179
#        186441
#        199239
#        211009
#        225157
#        246740
#        260355
#        277760
#        291763
#
# Disc length: 4254 seconds
#
# Revision: 0
# Processed by: cddbd v1.5.2PL0 Copyright (c) Steve Scherf et al.
# Submitted via: ExactAudioCopy v0.95b4
#
DISCID=2d109c14
DTITLE=Various Artist - F:\\Dad's Music\\Blues\\Joanne's Blues Bayou in Newpo
DTITLE=rt
DYEAR=2000
DGENRE=Blues
TTITLE0=Blues, Blues, Blues
TTITLE1=The Thrill Is Gone
TTITLE2=Stormy Blues
TTITLE3=Empty Arms
TTITLE4=I'll Wait For You
TTITLE5=Black Magic Woman - Gypsy Queen
TTITLE6=Cry Me A River
TTITLE7=Sugar
TTITLE8=Since I Fell For You
TTITLE9=Sinner's Prayer
TTITLE10=Black Coffee
TTITLE11=Big Legs, Tight Shirts
TTITLE12=Hoochi Coochie Man
TTITLE13=I'm Getting Sentimental Over You
TTITLE14=Ain't Nobody's Business
TTITLE15=Back To Memphis
TTITLE16=At  Last
TTITLE17=How Long Blues
TTITLE18=Gone Home
TTITLE19=The Long Goodbye
EXTD=
EXTT0=
EXTT1=
EXTT2=
EXTT3=
EXTT4=
EXTT5=
EXTT6=
EXTT7=
EXTT8=
EXTT9=
EXTT10=
EXTT11=
EXTT12=
EXTT13=
EXTT14=
EXTT15=
EXTT16=
EXTT17=
EXTT18=
EXTT19=
PLAYORDER=
